<?xml version="1.0" encoding="UTF-8"?>
<svg width="40px" height="40px" viewBox="0 0 40 40" version="1.1" xmlns="http://www.w3.org/2000/svg" xmlns:xlink="http://www.w3.org/1999/xlink">
	<title>RSS image</title>
	<defs></defs>
	<g id="IDNumber" stroke="none" stroke-width="1" fill="none" fill-rule="evenodd" myotherfield="myvalueisnotreallyevil">
		<g id="IDNUmber2" transform="translate(-1326.000000, -4424.000000)">
			<g id="Botn" transform="translate(0.000000, 4080.000000)">
				<g id="RSS" transform="translate(1326.000000, 344.000000)" someotherfield2="myvalueoffield">
					<path d="M0,20 C0,8.95430446 8.95430446,0 20,0 C31.0456955,0 40,8.95430446 40,20 C40,31.0456955 31.0456955,40 20,40 C8.95430446,40 0,31.0456955 0,20 Z" id="back" fill="#F8991D"></path>
					<path d="M12.0002,25.5555553 C12.0002,23.8606667 13.1941872,22.6666667 14.6668381,22.6666667 C16.139489,22.6666667 17.5534762,23.8606667 17.5534762,25.5555553 C17.5534762,26.806 16.139489,28 14.6668381,28 C13.1941872,28 12.0002,26.806 12.0002,25.5555553 Z M30.6666667,28 L27.1113714,28 C27.1113714,19.6675555 20.5527774,12.8886667 12.0002,12.8886667 L12.0002,9.55555555 C22.2927564,9.55555555 30.6666667,17.7075555 30.6666667,28 Z M24.4445553,28 L20.8892381,28 C20.8892381,23.0986667 16.9012808,19.1115555 12,19.1115555 L12,15.5555555 C18.8619265,15.5555555 24.4445553,21.138 24.4445553,28 Z" fill="#FFFFFF"></path>
				</g>
			</g>
		</g>
	</g>
</svg>
